<svg id="svg" version="1.1" xmlns="http://www.w3.org/2000/svg" xmlns:xlink="http://www.w3.org/1999/xlink" width="400" height="400" viewBox="0, 0, 400,400"><g id="svgg"><path id="path0" d="M168.061 85.880 C 153.719 88.046,145.560 94.674,140.041 108.644 C 128.924 136.783,124.910 174.606,130.590 197.692 C 134.962 215.464,143.937 224.435,159.622 226.711 C 178.427 229.441,205.264 221.668,228.507 206.759 C 229.595 206.061,230.513 205.428,230.546 205.353 C 230.579 205.278,230.674 205.216,230.757 205.216 C 230.840 205.216,231.607 204.710,232.462 204.092 C 233.317 203.473,234.148 202.887,234.310 202.788 C 234.821 202.474,235.087 202.259,235.477 201.844 C 235.685 201.621,235.963 201.439,236.094 201.439 C 236.224 201.439,236.331 201.358,236.331 201.259 C 236.331 201.160,236.399 201.099,236.483 201.124 C 236.567 201.149,236.891 200.897,237.203 200.566 L 237.770 199.962 237.779 197.148 L 237.788 194.335 238.867 196.462 L 239.945 198.590 240.971 197.730 C 241.535 197.257,242.322 196.583,242.721 196.232 C 243.120 195.881,244.001 195.108,244.680 194.514 C 259.047 181.956,268.245 165.886,268.189 153.445 C 268.174 150.225,268.325 150.334,265.953 151.837 C 264.845 152.539,263.028 153.593,261.915 154.179 L 259.892 155.246 259.893 143.225 L 259.894 131.205 260.356 131.745 C 261.848 133.488,258.946 129.390,256.727 126.619 C 254.036 123.259,249.798 118.806,247.055 116.457 C 246.478 115.962,245.710 115.284,245.350 114.949 C 244.652 114.302,242.547 112.559,241.740 111.960 C 241.473 111.763,240.856 111.277,240.368 110.881 C 239.235 109.961,239.447 110.122,237.106 108.403 C 221.365 96.844,203.023 88.939,185.432 86.133 C 182.303 85.634,170.800 85.467,168.061 85.880 M196.359 104.541 C 198.694 108.548,200.122 111.544,201.640 115.620 L 202.558 118.085 203.599 118.392 C 204.945 118.789,205.996 119.905,206.282 121.243 C 206.407 121.822,206.475 125.867,206.475 132.653 L 206.475 143.165 217.200 143.165 C 229.153 143.165,228.944 143.146,230.159 144.359 C 231.340 145.539,231.319 145.289,231.259 157.584 L 231.205 168.674 230.657 169.454 C 230.356 169.883,229.749 170.436,229.309 170.683 L 228.507 171.133 217.498 171.183 L 206.488 171.234 206.436 182.244 C 206.379 194.436,206.426 193.953,205.188 195.078 C 204.088 196.078,204.544 196.043,192.393 196.043 L 181.172 196.043 180.379 195.625 C 179.943 195.395,179.344 194.862,179.047 194.440 L 178.507 193.674 178.458 182.454 L 178.409 171.234 167.307 171.183 L 156.205 171.133 155.362 170.638 C 153.378 169.471,153.417 169.738,153.418 157.212 C 153.419 145.359,153.406 145.504,154.555 144.358 C 155.769 143.146,155.553 143.165,167.598 143.165 L 178.409 143.165 178.458 131.940 L 178.507 120.714 179.055 119.934 C 179.356 119.506,179.963 118.952,180.404 118.705 L 181.205 118.255 188.174 118.203 L 195.144 118.150 195.144 110.424 C 195.144 106.174,195.176 102.698,195.215 102.698 C 195.253 102.698,195.769 103.527,196.359 104.541 M260.792 132.384 C 260.792 132.439,260.994 132.758,261.241 133.094 C 261.488 133.429,261.688 133.627,261.684 133.533 C 261.677 133.353,260.794 132.214,260.792 132.384 " stroke="none" fill="#fc7a10" fill-rule="evenodd"></path><path id="path1" d="M180.665 118.641 C 178.397 119.842,178.417 119.720,178.417 132.488 L 178.417 143.148 167.401 143.201 C 151.974 143.277,153.417 141.833,153.417 157.194 C 153.417 168.059,153.457 168.595,154.342 169.669 C 155.530 171.110,154.898 171.043,167.349 171.043 L 178.417 171.043 178.417 181.755 C 178.417 193.732,178.413 193.681,179.569 194.881 C 180.701 196.056,180.534 196.041,192.497 196.042 C 204.234 196.043,203.976 196.065,205.097 194.999 C 206.255 193.900,206.196 194.522,206.295 182.284 L 206.385 171.133 217.536 171.043 C 229.918 170.943,229.210 171.017,230.354 169.715 C 231.294 168.643,231.326 168.192,231.263 156.565 C 231.198 144.694,231.285 145.467,229.867 144.186 C 229.465 143.823,229.116 143.507,229.091 143.485 C 229.067 143.463,223.948 143.402,217.716 143.350 L 206.385 143.255 206.295 132.104 C 206.193 119.461,206.270 120.091,204.690 118.975 L 203.926 118.435 192.566 118.395 C 182.482 118.360,181.144 118.388,180.665 118.641 " stroke="none" fill="#fcfbfb" fill-rule="evenodd"></path><path id="path2" d="M37.950 264.123 C 37.801 264.152,37.073 264.273,36.331 264.392 C 21.532 266.761,12.471 282.891,17.465 297.977 C 23.083 314.950,45.233 320.322,58.959 308.041 C 61.305 305.942,61.391 306.440,58.120 303.173 L 55.291 300.349 54.129 301.359 C 49.450 305.428,45.942 306.794,40.623 306.618 C 22.788 306.027,19.443 278.386,36.511 272.641 C 42.071 270.770,48.271 272.300,53.665 276.876 C 55.140 278.127,54.654 278.383,57.909 274.640 L 60.647 271.493 59.595 270.547 C 54.553 266.014,48.945 264.002,41.484 264.050 C 39.688 264.061,38.098 264.094,37.950 264.123 M83.723 264.153 C 55.486 267.813,54.342 309.414,82.347 314.218 C 98.580 317.003,112.409 306.084,112.896 290.096 C 113.393 273.812,100.138 262.025,83.723 264.153 M118.525 289.299 L 118.525 313.849 122.932 313.849 L 127.338 313.849 127.338 303.507 L 127.338 293.165 138.939 293.165 L 150.540 293.165 150.540 303.507 L 150.540 313.849 154.856 313.849 L 159.173 313.849 159.173 289.299 L 159.173 264.748 154.856 264.748 L 150.540 264.748 150.540 274.910 L 150.540 285.072 138.939 285.072 L 127.338 285.072 127.338 274.910 L 127.338 264.748 122.932 264.748 L 118.525 264.748 118.525 289.299 M166.906 289.299 L 166.906 313.849 185.342 313.849 L 203.777 313.849 203.777 309.892 L 203.777 305.935 189.748 305.935 L 175.719 305.935 175.719 299.550 L 175.719 293.165 187.950 293.165 L 200.180 293.165 200.180 289.209 L 200.180 285.252 187.950 285.252 L 175.719 285.252 175.719 278.957 L 175.719 272.662 189.568 272.662 L 203.417 272.662 203.417 268.705 L 203.417 264.748 185.162 264.748 L 166.906 264.748 166.906 289.299 M209.173 289.299 L 209.173 313.849 213.579 313.849 L 217.986 313.849 217.986 305.396 L 217.986 296.942 223.336 296.951 L 228.687 296.959 234.638 305.359 L 240.589 313.759 245.764 313.807 C 249.880 313.845,250.922 313.808,250.852 313.627 C 250.803 313.502,249.485 311.619,247.922 309.442 C 246.359 307.266,243.442 303.203,241.440 300.414 L 237.800 295.343 238.729 295.039 C 251.506 290.864,253.319 272.791,241.547 266.946 C 237.290 264.831,236.530 264.748,221.480 264.748 L 209.173 264.748 209.173 289.299 M255.036 289.299 L 255.036 313.849 273.471 313.849 L 291.906 313.849 291.906 309.892 L 291.906 305.935 277.878 305.935 L 263.849 305.935 263.849 299.550 L 263.849 293.165 276.079 293.165 L 288.309 293.165 288.309 289.209 L 288.309 285.252 276.079 285.252 L 263.849 285.252 263.849 278.957 L 263.849 272.662 277.698 272.662 L 291.547 272.662 291.547 268.705 L 291.547 264.748 273.291 264.748 L 255.036 264.748 255.036 289.299 M297.122 289.295 L 297.122 313.849 301.438 313.849 L 305.754 313.849 305.799 296.527 L 305.845 279.204 319.245 296.525 L 332.644 313.846 336.286 313.848 L 339.928 313.849 339.928 289.299 L 339.928 264.748 335.612 264.748 L 331.295 264.748 331.295 281.489 L 331.295 298.229 318.378 281.534 L 305.462 264.838 301.292 264.790 L 297.122 264.742 297.122 289.295 M344.424 268.795 L 344.424 272.842 352.158 272.842 L 359.892 272.842 359.892 293.345 L 359.892 313.849 364.299 313.849 L 368.705 313.849 368.705 293.345 L 368.705 272.842 376.439 272.842 L 384.173 272.842 384.173 268.795 L 384.173 264.748 364.299 264.748 L 344.424 264.748 344.424 268.795 M92.245 272.636 C 104.498 276.810,107.877 293.389,98.324 302.463 C 91.335 309.103,79.569 307.747,74.119 299.675 C 67.559 289.956,71.699 276.138,82.207 272.683 C 85.162 271.711,89.471 271.691,92.245 272.636 M233.903 272.934 C 242.747 274.799,242.681 286.194,233.813 288.575 C 232.823 288.841,231.519 288.903,225.315 288.981 L 217.986 289.072 217.986 280.867 L 217.986 272.662 225.315 272.665 C 231.079 272.667,232.913 272.725,233.903 272.934 " stroke="none" fill="#040404" fill-rule="evenodd"></path><path id="path3" d="M195.144 110.432 L 195.144 118.165 198.831 118.165 C 200.859 118.165,202.518 118.119,202.518 118.061 C 202.518 117.404,199.341 109.904,198.067 107.554 C 197.111 105.790,195.295 102.698,195.215 102.698 C 195.176 102.698,195.144 106.178,195.144 110.432 M259.892 143.248 L 259.892 155.246 261.915 154.179 C 263.028 153.593,264.849 152.536,265.962 151.831 C 267.075 151.126,267.986 150.641,267.986 150.754 C 267.986 150.867,268.027 150.918,268.077 150.868 C 268.229 150.716,267.498 146.789,267.001 145.080 C 266.243 142.474,264.252 137.682,263.806 137.390 C 263.714 137.329,263.646 137.228,263.656 137.164 C 263.686 136.969,262.735 135.170,262.534 135.041 C 262.430 134.975,262.326 134.786,262.302 134.622 C 262.277 134.457,262.110 134.210,261.929 134.073 C 261.749 133.936,261.682 133.821,261.781 133.816 C 261.895 133.811,261.893 133.760,261.774 133.675 C 261.476 133.463,260.792 132.522,260.846 132.398 C 260.873 132.335,260.670 132.051,260.394 131.767 L 259.892 131.250 259.892 143.248 M259.173 178.237 C 258.961 178.534,258.829 178.777,258.878 178.777 C 258.928 178.777,259.141 178.534,259.353 178.237 C 259.564 177.941,259.696 177.698,259.647 177.698 C 259.597 177.698,259.384 177.941,259.173 178.237 M257.374 180.755 C 257.163 181.052,257.030 181.295,257.080 181.295 C 257.129 181.295,257.343 181.052,257.554 180.755 C 257.765 180.459,257.898 180.216,257.848 180.216 C 257.799 180.216,257.585 180.459,257.374 180.755 M251.342 187.995 L 250.450 188.939 251.394 188.046 C 252.271 187.217,252.421 187.050,252.286 187.050 C 252.258 187.050,251.833 187.475,251.342 187.995 M237.779 197.183 C 237.770 199.909,237.752 200.047,237.365 200.380 C 237.012 200.683,237.047 200.679,237.639 200.344 C 238.012 200.133,238.424 199.808,238.554 199.621 C 238.685 199.435,238.843 199.334,238.906 199.397 C 238.969 199.460,239.071 199.379,239.134 199.216 C 239.196 199.054,239.355 198.921,239.487 198.921 C 240.006 198.921,239.899 198.498,238.864 196.456 L 237.788 194.335 237.779 197.183 " stroke="none" fill="#fc6404" fill-rule="evenodd"></path><path id="path4" d="M187.005 118.300 C 189.998 118.328,194.894 118.328,197.887 118.300 C 200.879 118.273,198.431 118.250,192.446 118.250 C 186.461 118.250,184.013 118.273,187.005 118.300 M206.383 132.464 L 206.385 143.255 217.311 143.258 L 228.237 143.260 217.358 143.211 L 206.478 143.163 206.429 132.418 L 206.381 121.673 206.383 132.464 M162.108 171.178 C 165.157 171.206,170.094 171.206,173.079 171.178 C 176.065 171.150,173.570 171.128,167.536 171.128 C 161.502 171.128,159.059 171.150,162.108 171.178 M206.378 171.268 C 206.330 171.392,206.313 176.268,206.340 182.104 L 206.388 192.716 206.431 181.971 L 206.475 171.226 217.311 171.178 L 228.147 171.130 217.306 171.087 C 208.765 171.052,206.445 171.091,206.378 171.268 M205.115 195.009 L 204.586 195.594 205.171 195.065 C 205.716 194.573,205.838 194.424,205.699 194.424 C 205.668 194.424,205.405 194.688,205.115 195.009 " stroke="none" fill="#fcbc94" fill-rule="evenodd"></path></g></svg>